<svg xmlns="http://www.w3.org/2000/svg" xmlns:xlink="http://www.w3.org/1999/xlink" width="1635" height="607" preserveAspectRatio="xMidYMid" viewBox="0 0 1635 607" style="shape-rendering:auto;display:block;background-position-x:0;background-position-y:0;background-size:auto;background-origin:padding-box;background-clip:border-box;background:0 0;width:1635px;height:607px;animation:none"><g style="transform:matrix(-1,0,0,-1,1635,607);animation:none"><linearGradient id="lg-5z1ivifcnzb" x1="0" x2="1" y1="0" y2="0"><stop offset="0" stop-color="#f0f"/><stop offset="1" stop-color="#0ff"/></linearGradient><path fill="url(#lg-5z1ivifcnzb)" d="M 0 0 L 0 552.18 Q 204.38 530.48 408.75 496.76 T 817.5 181.14 T 1226.25 -83.06 T 1635 -22.13 L 1635 0 Z" opacity=".4" style="fill:url(#lg-5z1ivifcnzb);opacity:.4;animation:none"/><path fill="url(#lg-5z1ivifcnzb)" d="M 0 0 L 0 526.1 Q 204.38 362.872 408.75 333.318 T 817.5 163.752 T 1226.25 -89.0991 T 1635 -263.095 L 1635 0 Z" opacity=".4" style="fill:url(#lg-5z1ivifcnzb);opacity:.4;animation:none"/><path fill="url(#lg-5z1ivifcnzb)" d="M 0 0 L 0 566.182 Q 204.38 487.033 408.75 457.113 T 817.5 118.913 T 1226.25 119.753 T 1635 -25.1623 L 1635 0 Z" opacity=".4" style="fill:url(#lg-5z1ivifcnzb);opacity:.4;animation:none"/><path fill="url(#lg-5z1ivifcnzb)" d="M 0 0 L 0 598.535 Q 204.38 421.474 408.75 383.049 T 817.5 302.725 T 1226.25 -100.488 T 1635 -193.342 L 1635 0 Z" opacity=".4" style="fill:url(#lg-5z1ivifcnzb);opacity:.4;animation:none"/><path fill="url(#lg-5z1ivifcnzb)" d="M 0 0 L 0 632.875 Q 204.38 290.401 408.75 267.647 T 817.5 152.929 T 1226.25 116.406 T 1635 -105.129 L 1635 0 Z" opacity=".4" style="fill:url(#lg-5z1ivifcnzb);opacity:.4;animation:none"/></g></svg>