<svg xmlns="http://www.w3.org/2000/svg" xmlns:xlink="http://www.w3.org/1999/xlink" style="background-color:transparent" id="eMWprNXg2x11" cache-id="44fdeb2470004d08a8495405d06860b4" shape-rendering="geometricPrecision" text-rendering="geometricPrecision" viewBox="0 0 1440 1080"><style>@keyframes eMWprNXg2x17_to__to{0%{offset-distance:0}60.428571%{offset-distance:0;animation-timing-function:cubic-bezier(.42,0,.58,1)}63.857143%{offset-distance:1.600401%;animation-timing-function:cubic-bezier(.42,0,.58,1)}67.142857%{offset-distance:3.200802%}72.142857%{offset-distance:4.961243%;animation-timing-function:cubic-bezier(.533111,0,.844779,.581648)}80.142857%{offset-distance:28.208641%;animation-timing-function:step-end}80.428571%{offset-distance:74.913307%;animation-timing-function:cubic-bezier(.39,.575,.565,1)}88.571429%{offset-distance:98.387622%;animation-timing-function:cubic-bezier(.445,.05,.55,.95)}95.428571%{offset-distance:99.988023%}98.428571%{offset-distance:100%}}@keyframes eMWprNXg2x17_tr__tr{0%,60.428571%,67.142857%,78.714286%,88.571429%{transform:rotate(0deg)}6.285714%{transform:rotate(0deg);animation-timing-function:cubic-bezier(.445,.05,.55,.95)}13.857143%,20.571429%,26.285714%,32%,40%,51.857143%{transform:rotate(20deg);animation-timing-function:cubic-bezier(.445,.05,.55,.95)}17.714286%,23.428571%,29.142857%,35.571429%,45.285714%{transform:rotate(-20deg);animation-timing-function:cubic-bezier(.445,.05,.55,.95)}72.142857%{transform:rotate(20deg);animation-timing-function:cubic-bezier(.47,0,.745,.715)}80.428571%{transform:rotate(0deg);animation-timing-function:cubic-bezier(.39,.575,.565,1)}}@keyframes eMWprNXg2x114_ts__ts{0%{transform:translate(153.381468px,242.74936px) scale(4.03385,4.03385)}86%{transform:translate(153.381468px,242.74936px) scale(4.03385,4.03385);animation-timing-function:cubic-bezier(.445,.05,.55,.95)}88.857143%{transform:translate(153.381468px,242.74936px) scale(0,0)}}@keyframes eMWprNXg2x117_ts__ts{0%{transform:translate(163.642006px,243.881096px) scale(1.1,1.1)}84.571429%{transform:translate(163.642006px,243.881096px) scale(1.1,1.1);animation-timing-function:cubic-bezier(.445,.05,.55,.95)}88.857143%{transform:translate(163.642006px,243.881096px) scale(1,1)}}@keyframes eMWprNXg2x117_s_w{0%{stroke-width:12}86%{stroke-width:12;animation-timing-function:cubic-bezier(.445,.05,.55,.95)}88.857143%{stroke-width:0}}@keyframes eMWprNXg2x118_ts__ts{0%{transform:translate(400.000046px,552.141785px) scale(1,1)}95.857143%{transform:translate(400.000046px,552.141785px) scale(1,1);animation-timing-function:cubic-bezier(.445,.05,.55,.95)}98.571429%{transform:translate(400.000046px,552.141785px) scale(1.1,1.1);animation-timing-function:cubic-bezier(.445,.05,.55,.95)}}@keyframes eMWprNXg2x123_ts__ts{0%{transform:translate(168.295px,552.1419px) scale(0,1)}93.714286%{transform:translate(168.295px,552.1419px) scale(0,1);animation-timing-function:cubic-bezier(.445,.05,.55,.95)}95.857143%{transform:translate(168.295px,552.1419px) scale(1,1)}}@keyframes eMWprNXg2x125_to__to{0%{offset-distance:0}6.714286%{offset-distance:0;animation-timing-function:cubic-bezier(.445,.05,.55,.95)}12.571429%{offset-distance:2.11298%;animation-timing-function:cubic-bezier(.39,.575,.565,1)}13.857143%{offset-distance:2.147944%;animation-timing-function:cubic-bezier(.39,.575,.565,1)}16.428571%{offset-distance:7.630121%;animation-timing-function:cubic-bezier(.39,.575,.565,1)}17.714286%{offset-distance:7.633356%;animation-timing-function:cubic-bezier(.39,.575,.565,1)}19.428571%{offset-distance:14.440691%;animation-timing-function:cubic-bezier(.39,.575,.565,1)}20.571429%{offset-distance:14.442727%;animation-timing-function:cubic-bezier(.39,.575,.565,1)}22.428571%{offset-distance:21.248145%;animation-timing-function:cubic-bezier(.39,.575,.565,1)}23.428571%{offset-distance:21.251522%;animation-timing-function:cubic-bezier(.39,.575,.565,1)}25.285714%{offset-distance:28.046177%;animation-timing-function:cubic-bezier(.39,.575,.565,1)}26.285714%{offset-distance:28.048767%;animation-timing-function:cubic-bezier(.39,.575,.565,1)}28.142857%{offset-distance:34.84864%;animation-timing-function:cubic-bezier(.39,.575,.565,1)}29.142857%{offset-distance:34.852288%;animation-timing-function:cubic-bezier(.39,.575,.565,1)}31%{offset-distance:41.651154%;animation-timing-function:cubic-bezier(.39,.575,.565,1)}32%{offset-distance:41.653898%;animation-timing-function:cubic-bezier(.39,.575,.565,1)}34.428571%{offset-distance:48.452007%;animation-timing-function:cubic-bezier(.445,.05,.55,.95)}35.571429%{offset-distance:48.454496%;animation-timing-function:cubic-bezier(.39,.575,.565,1)}39.428571%{offset-distance:55.254815%;animation-timing-function:cubic-bezier(.445,.05,.55,.95)}43.714286%{offset-distance:62.061628%;animation-timing-function:cubic-bezier(.445,.05,.55,.95)}49.714286%{offset-distance:67.547948%;animation-timing-function:cubic-bezier(.39,.575,.565,1)}55.571429%{offset-distance:71.207779%;animation-timing-function:cubic-bezier(.445,.05,.55,.95)}61.857143%{offset-distance:72.773147%;animation-timing-function:cubic-bezier(.445,.05,.55,.95)}67.142857%{offset-distance:72.773147%;animation-timing-function:cubic-bezier(.39,.575,.565,1)}70.714286%{offset-distance:76.199211%}72.142857%{offset-distance:76.199211%;animation-timing-function:cubic-bezier(.39,.575,.565,1)}77.285714%,78.714286%{offset-distance:83.018425%;animation-timing-function:cubic-bezier(.39,.575,.565,1)}80.428571%{offset-distance:86.388927%}81.714286%{offset-distance:89.776889%;animation-timing-function:cubic-bezier(.445,.05,.55,.95)}89.571429%{offset-distance:96.585556%;animation-timing-function:cubic-bezier(.445,.05,.55,.95)}98.428571%{offset-distance:100%}}@keyframes eMWprNXg2x131__m{0%,67.142857%,86.428571%{d:path(&apos;M404.48,260.94C473.04,260.94,528.73,321.45,528.73,400.43C528.73,447.35,544.93,477.16,557.48,495.35C567.74,510.22,563.66,530.6,548.4,540.27L548.4,540.27C537.77,547.01,532.7,551.56,445.17,550.59C445.17,550.59,527.36,544.85,527.36,513.37C527.36,495.71,498.8,472.74,498.8,400.18C498.8,291.79,404.48,260.94,404.48,260.94Z&apos;)}72.142857%{d:path(&apos;M404.48,260.94C473.04,260.94,528.73,321.45,528.73,400.43C528.73,447.35,544.93,477.16,557.48,495.35C567.74,510.22,563.66,530.6,548.4,540.27L548.4,540.27C537.77,547.01,521.660066,551.087866,434.130066,550.117866C434.130066,550.117866,508.855488,539.940308,508.855488,508.460308C508.855488,490.800308,485.22212,464.34031,485.22212,391.78031C485.22212,283.39031,404.48,260.94,404.48,260.94Z&apos;);animation-timing-function:cubic-bezier(.47,0,.745,.715)}77.285714%{d:path(&apos;M404.48,260.94C473.04,260.94,528.73,321.45,528.73,400.43C528.73,447.35,544.93,477.16,557.48,495.35C567.74,510.22,563.66,530.6,548.4,540.27L548.4,540.27C537.77,547.01,532.7,551.56,445.17,550.59C445.17,550.59,544.290235,546.411463,544.290235,514.931463C544.290235,497.271463,515.730235,474.301463,515.730235,401.741463C515.730235,293.351463,404.48,260.94,404.48,260.94Z&apos;)}82%{d:path(&apos;M404.48,260.94C473.04,260.94,528.73,321.45,528.73,400.43C528.73,447.35,544.93,477.16,557.48,495.35C567.74,510.22,563.66,530.6,548.4,540.27L548.4,540.27C537.77,547.01,532.7,551.56,445.17,550.59C445.17,550.59,544.290235,546.411463,544.290235,514.931463C544.290235,497.271463,515.730235,474.301463,515.730235,401.741463C515.730235,293.351463,404.48,260.94,404.48,260.94Z&apos;);animation-timing-function:cubic-bezier(.47,0,.745,.715)}}@keyframes eMWprNXg2x132_to__to{0%,67.142857%,86.428571%{transform:translate(349.104996px,323.310013px)}72.142857%{transform:translate(334.408483px,318.017328px);animation-timing-function:cubic-bezier(.47,0,.745,.715)}77.285714%{transform:translate(358.320732px,323.045066px)}82%{transform:translate(358.320732px,323.045066px);animation-timing-function:cubic-bezier(.47,0,.745,.715)}}@keyframes eMWprNXg2x135_to__to{0%{offset-distance:0}60.285714%{offset-distance:0;animation-timing-function:cubic-bezier(.42,0,.58,1)}63.857143%{offset-distance:12.008784%;animation-timing-function:cubic-bezier(.42,0,.58,1)}67.142857%{offset-distance:24.017568%}72.142857%{offset-distance:43.624665%;animation-timing-function:cubic-bezier(.47,0,.745,.715)}77.285714%{offset-distance:69.908703%}80.428571%{offset-distance:69.908703%;animation-timing-function:cubic-bezier(.47,0,.745,.715)}88.571429%{offset-distance:87.991216%;animation-timing-function:cubic-bezier(.39,.575,.565,1)}93.857143%{offset-distance:100%}}@keyframes eMWprNXg2x135_tr__tr{0%,88.571429%{transform:rotate(0deg)}72.142857%{transform:rotate(0deg);animation-timing-function:cubic-bezier(.47,0,.745,.715)}77.285714%{transform:rotate(-2.310888deg)}80.428571%{transform:rotate(-2.310888deg);animation-timing-function:cubic-bezier(.47,0,.745,.715)}}@keyframes eMWprNXg2x138__m{0%,54.714286%{d:path(&apos;M-2.5,0C-2.5,-1.380712,-1.380712,-2.5,0,-2.5C1.380712,-2.5,2.5,-1.380712,2.5,0C2.5,1.380712,1.380712,2.5,0,2.5C-1.380712,2.5,-2.5,1.380712,-2.5,0Z&apos;)}14.714286%,20.428571%,49%{d:path(&apos;M-2.5,0C-2.5,-1.380712,-1.380712,-2.5,0,-2.5C1.380712,-2.5,2.5,-1.380712,2.5,0C2.5,1.380712,1.380712,2.5,0,2.5C-1.380712,2.5,-2.5,1.380712,-2.5,0Z&apos;);animation-timing-function:cubic-bezier(.445,.05,.55,.95)}17.571429%,51.857143%{d:path(&apos;M-4.243326,1.302193C-4.535446,0.146537,-2.556695,2.051367,0.199681,1.825434C2.956057,1.599501,3.708322,-0.686487,4.211653,0.413789C4.714984,1.514065,1.388534,2.496382,0.216761,2.52898C-0.955012,2.561578,-3.951206,2.457849,-4.243326,1.302193Z&apos;);animation-timing-function:cubic-bezier(.445,.05,.55,.95)}}@keyframes eMWprNXg2x139__m{0%,54.714286%{d:path(&apos;M-2.5,0C-2.5,-1.380712,-1.380712,-2.5,0,-2.5C1.380712,-2.5,2.5,-1.380712,2.5,0C2.5,1.380712,1.380712,2.5,0,2.5C-1.380712,2.5,-2.5,1.380712,-2.5,0Z&apos;)}14.714286%,20.428571%,49%{d:path(&apos;M-2.5,0C-2.5,-1.380712,-1.380712,-2.5,0,-2.5C1.380712,-2.5,2.5,-1.380712,2.5,0C2.5,1.380712,1.380712,2.5,0,2.5C-1.380712,2.5,-2.5,1.380712,-2.5,0Z&apos;);animation-timing-function:cubic-bezier(.445,.05,.55,.95)}17.571429%,51.857143%{d:path(&apos;M-3.937275,1.02571C-3.699101,0.165625,-3.1287,1.748367,-0.044756,1.95933C3.039188,2.170293,4.646082,-0.101191,4.537065,1.041229C4.428048,2.183649,1.158609,2.556722,-0.030483,2.550288C-1.219575,2.543854,-4.175449,1.885795,-3.937275,1.02571Z&apos;)}}@keyframes eMWprNXg2x140__m{0%,43.285714%{d:path(&apos;M643,140.8C643,140.8,640.9,145.8,636,145.8C630.9,145.8,629,140.8,629,140.8C629,140.8,630.900048,145.822151,636.000004,145.799998C640.354011,145.781085,643,140.8,643,140.8Z&apos;)}17.571429%{d:path(&apos;M643,140.8C643,140.8,640.9,145.8,636,145.8C630.9,145.8,629,140.8,629,140.8C629,140.8,630.900048,145.822151,636.000004,145.799998C640.354011,145.781085,643,140.8,643,140.8Z&apos;);animation-timing-function:cubic-bezier(.445,.05,.55,.95)}23.285714%{d:path(&apos;M643.055518,142.931071C642.599998,146.19474,640.892144,149.634393,635.870214,149.297442C630.781656,148.956021,628.933988,144.641664,629.348878,141.167859C629.806847,137.33336,633.701263,134.242643,638.305744,135.182256C642.728386,136.084762,643.456286,140.059685,643.055518,142.931071Z&apos;);animation-timing-function:cubic-bezier(.445,.05,.55,.95)}37.571429%{d:path(&apos;M642.873679,142.680256C642.418159,145.943925,640.01915,149.472538,635.59136,148.929603C630.529273,148.308891,628.933988,144.641664,629.348878,141.167859C629.806847,137.33336,633.701263,134.242643,638.305744,135.182256C642.728386,136.084762,643.274447,139.80887,642.873679,142.680256Z&apos;);animation-timing-function:cubic-bezier(.445,.05,.55,.95)}}@keyframes eMWprNXg2x144__m{0%,43.285714%{d:path(&apos;M643,140.8C643,140.8,640.9,145.8,636,145.8C630.9,145.8,629,140.8,629,140.8C629,140.8,630.900048,145.822151,636.000004,145.799998C640.354011,145.781085,643,140.8,643,140.8Z&apos;)}17.571429%{d:path(&apos;M643,140.8C643,140.8,640.9,145.8,636,145.8C630.9,145.8,629,140.8,629,140.8C629,140.8,630.900048,145.822151,636.000004,145.799998C640.354011,145.781085,643,140.8,643,140.8Z&apos;);animation-timing-function:cubic-bezier(.445,.05,.55,.95)}23.285714%{d:path(&apos;M643.055518,142.931071C642.599998,146.19474,640.892144,149.634393,635.870214,149.297442C630.781656,148.956021,628.933988,144.641664,629.348878,141.167859C629.806847,137.33336,633.701263,134.242643,638.305744,135.182256C642.728386,136.084762,643.456286,140.059685,643.055518,142.931071Z&apos;);animation-timing-function:cubic-bezier(.445,.05,.55,.95)}37.571429%{d:path(&apos;M642.873679,142.680256C642.418159,145.943925,640.01915,149.472538,635.59136,148.929603C630.529273,148.308891,628.933988,144.641664,629.348878,141.167859C629.806847,137.33336,633.701263,134.242643,638.305744,135.182256C642.728386,136.084762,643.274447,139.80887,642.873679,142.680256Z&apos;);animation-timing-function:cubic-bezier(.445,.05,.55,.95)}}@keyframes eMWprNXg2x145__m{0%,43.285714%{d:path(&apos;M643,140.8C643,140.8,640.9,145.8,636,145.8C630.9,145.8,629,140.8,629,140.8C629,140.8,630.900048,145.822151,636.000004,145.799998C640.354011,145.781085,643,140.8,643,140.8Z&apos;)}17.571429%{d:path(&apos;M643,140.8C643,140.8,640.9,145.8,636,145.8C630.9,145.8,629,140.8,629,140.8C629,140.8,630.900048,145.822151,636.000004,145.799998C640.354011,145.781085,643,140.8,643,140.8Z&apos;);animation-timing-function:cubic-bezier(.445,.05,.55,.95)}23.285714%{d:path(&apos;M643.055518,142.931071C642.599998,146.19474,640.892144,149.634393,635.870214,149.297442C630.781656,148.956021,628.933988,144.641664,629.348878,141.167859C629.806847,137.33336,633.701263,134.242643,638.305744,135.182256C642.728386,136.084762,643.456286,140.059685,643.055518,142.931071Z&apos;);animation-timing-function:cubic-bezier(.445,.05,.55,.95)}37.571429%{d:path(&apos;M642.873679,142.680256C642.418159,145.943925,640.01915,149.472538,635.59136,148.929603C630.529273,148.308891,628.933988,144.641664,629.348878,141.167859C629.806847,137.33336,633.701263,134.242643,638.305744,135.182256C642.728386,136.084762,643.274447,139.80887,642.873679,142.680256Z&apos;);animation-timing-function:cubic-bezier(.445,.05,.55,.95)}}@keyframes eMWprNXg2x149_ts__ts{0%{transform:translate(156.42183px,158.889827px) scale(1,1)}25.857143%,41.571429%{transform:translate(156.42183px,158.889827px) scale(1,1);animation-timing-function:cubic-bezier(.445,.05,.55,.95)}30.428571%,48.285714%{transform:translate(156.42183px,158.889827px) scale(1.423872,1.423872)}}@keyframes eMWprNXg2x149_c_o{0%,25.714286%,30.428571%,41.428571%,48.285714%{opacity:0}25.857143%,41.571429%{opacity:1}}@keyframes eMWprNXg2x149_s_w{0%,25.857143%,41.571429%{stroke-width:3}30.428571%,48.285714%{stroke-width:0}}@keyframes eMWprNXg2x150_ts__ts{0%{transform:translate(140.331601px,189.643964px) scale(.551659,.551659)}15.571429%{transform:translate(140.331601px,189.643964px) scale(.551659,.551659);animation-timing-function:cubic-bezier(0,0,.58,1)}19.285714%,31%,44%,56.714286%{transform:translate(140.331601px,189.643964px) scale(.78549,.78549)}27%,40%,52.714286%{transform:translate(140.331601px,189.643964px) scale(.551659,.551659);animation-timing-function:cubic-bezier(.445,.05,.55,.95)}}@keyframes eMWprNXg2x150_c_o{0%,15.428571%,19.285714%,26.857143%,31%,39.857143%,44%,52.571429%,56.714286%{opacity:0}15.571429%{opacity:1;animation-timing-function:cubic-bezier(0,0,.58,1)}27%,40%,52.714286%{opacity:1}}@keyframes eMWprNXg2x150_s_w{0%,15.571429%,27%,40%,52.714286%{stroke-width:4}19.285714%,31%,44%,56.714286%{stroke-width:0}}@keyframes eMWprNXg2x151_to__to{0%,15.571429%{transform:translate(193.564834px,311.814446px)}23.714286%{transform:translate(106.038178px,215.449015px)}25.857143%{transform:translate(623.207511px,353.609144px)}34%{transform:translate(736.919116px,283.482936px)}40%{transform:translate(157.70584px,339.357809px)}48.142857%{transform:translate(88.890316px,289.111385px)}52.714286%{transform:translate(525.214056px,341.249586px)}60.857143%{transform:translate(630.597092px,263.58698px)}}@keyframes eMWprNXg2x151_tr__tr{0%{transform:rotate(0deg)}15.571429%,25.857143%,40%,52.714286%{transform:rotate(0deg);animation-timing-function:cubic-bezier(.42,0,1,1)}23.714286%,48.142857%{transform:rotate(-60deg)}34%{transform:rotate(80deg)}60.857143%{transform:rotate(60deg)}}@keyframes eMWprNXg2x151_c_o{0%,15.428571%,23.714286%,25.714286%,34%,39.857143%,48.142857%,52.571429%,60.857143%{opacity:0}15.571429%,23.571429%,25.857143%,33.857143%,40%,48%,52.714286%,60.714286%{opacity:1}}@keyframes eMWprNXg2x152_s_do{0%,15.571429%,25.857143%,40%,52.714286%{stroke-dashoffset:30.43}23.714286%,34%,48.142857%,60.857143%{stroke-dashoffset:45.65}}@keyframes eMWprNXg2x153_s_do{0%,15.571429%,25.857143%,40%,52.714286%{stroke-dashoffset:30.43}23.714286%,34%,48.142857%,60.857143%{stroke-dashoffset:45.65}}@keyframes eMWprNXg2x154_s_do{0%,15.571429%,25.857143%,40%,52.714286%{stroke-dashoffset:30.43}23.714286%,34%,48.142857%,60.857143%{stroke-dashoffset:45.65}}@keyframes eMWprNXg2x155_s_do{0%,15.571429%,25.857143%,40%,52.714286%{stroke-dashoffset:30.43}23.714286%,34%,48.142857%,60.857143%{stroke-dashoffset:45.65}}@keyframes eMWprNXg2x157_ts__ts{0%{transform:translate(266.93689px,198.705282px) scale(.4,.4)}24.428571%,35.857143%{transform:translate(266.93689px,198.705282px) scale(.4,.4);animation-timing-function:cubic-bezier(0,0,.58,1)}31.428571%,42.857143%{transform:translate(266.93689px,198.705282px) scale(.963979,.963979)}}@keyframes eMWprNXg2x157_c_o{0%,24.285714%,31.428571%,35.714286%,42.857143%{opacity:0}24.428571%,35.857143%{opacity:1}}@keyframes eMWprNXg2x158_ts__ts{0%{transform:translate(262.703156px,153.548672px) scale(1,1)}19%,30.428571%,43.428571%,56.142857%{transform:translate(262.703156px,153.548672px) scale(1,1);animation-timing-function:cubic-bezier(.445,.05,.55,.95)}23.571429%,35%,48%,60.714286%{transform:translate(262.703156px,153.548672px) scale(1.423872,1.423872)}}@keyframes eMWprNXg2x158_c_o{0%,18.857143%,23.571429%,30.285714%,35%,43.285714%,48%,56%,60.714286%{opacity:0}19%,30.428571%,43.428571%,56.142857%{opacity:1}}@keyframes eMWprNXg2x158_s_w{0%,19%,30.428571%,43.428571%,56.142857%{stroke-width:3}23.571429%,35%,48%,60.714286%{stroke-width:0}}@keyframes eMWprNXg2x159_c_o{0%,18.285714%,21.142857%,24.142857%,26.714286%,29.285714%,31.428571%{opacity:0}18.428571%,20.714286%,24.285714%,26.285714%,29.428571%,31%{opacity:1}}@keyframes eMWprNXg2x160_s_do{0%,18.428571%,24.285714%,29.428571%{stroke-dashoffset:65.419962}21.142857%,26.714286%,31.428571%{stroke-dashoffset:-65.42}}@keyframes eMWprNXg2x161_s_do{0%,18.428571%,24.285714%,29.428571%{stroke-dashoffset:69.997457}21.142857%,26.714286%,31.428571%{stroke-dashoffset:-70}}@keyframes eMWprNXg2x162_c_o{0%,15%,17.714286%,21.285714%,24%,26.857143%,29.571429%,32.285714%,35%{opacity:0}15.142857%,17.285714%,21.428571%,23.571429%,27%,29.142857%,32.428571%,34.571429%{opacity:1}}@keyframes eMWprNXg2x163_s_do{0%,15.142857%,21.428571%,27%,32.428571%{stroke-dashoffset:65.419962}17.714286%,24%,29.571429%,35%{stroke-dashoffset:-65.42}}@keyframes eMWprNXg2x164_s_do{0%,15.142857%,21.428571%,27%,32.428571%{stroke-dashoffset:69.997457}17.714286%,24%,29.571429%,35%{stroke-dashoffset:-70}}#eMWprNXg2x17_to{animation:eMWprNXg2x17_to__to 7000ms linear infinite normal forwards}#eMWprNXg2x17_tr{animation:eMWprNXg2x17_tr__tr 7000ms linear infinite normal forwards}#eMWprNXg2x114_ts{animation:eMWprNXg2x114_ts__ts 7000ms linear infinite normal forwards}#eMWprNXg2x117_ts{animation:eMWprNXg2x117_ts__ts 7000ms linear infinite normal forwards}#eMWprNXg2x117{animation:eMWprNXg2x117_s_w 7000ms linear infinite normal forwards}#eMWprNXg2x118_ts{animation:eMWprNXg2x118_ts__ts 7000ms linear infinite normal forwards}#eMWprNXg2x123_ts{animation:eMWprNXg2x123_ts__ts 7000ms linear infinite normal forwards}#eMWprNXg2x125_to{animation:eMWprNXg2x125_to__to 7000ms linear infinite normal forwards}#eMWprNXg2x131{animation:eMWprNXg2x131__m 7000ms linear infinite normal forwards}#eMWprNXg2x132_to{animation:eMWprNXg2x132_to__to 7000ms linear infinite normal forwards}#eMWprNXg2x135_to{animation:eMWprNXg2x135_to__to 7000ms linear infinite normal forwards}#eMWprNXg2x135_tr{animation:eMWprNXg2x135_tr__tr 7000ms linear infinite normal forwards}#eMWprNXg2x138{animation:eMWprNXg2x138__m 7000ms linear infinite normal forwards}#eMWprNXg2x139{animation:eMWprNXg2x139__m 7000ms linear infinite normal forwards}#eMWprNXg2x140{animation:eMWprNXg2x140__m 7000ms linear infinite normal forwards}#eMWprNXg2x144{animation:eMWprNXg2x144__m 7000ms linear infinite normal forwards}#eMWprNXg2x145{animation:eMWprNXg2x145__m 7000ms linear infinite normal forwards}#eMWprNXg2x149_ts{animation:eMWprNXg2x149_ts__ts 7000ms linear infinite normal forwards}#eMWprNXg2x149{animation-name:eMWprNXg2x149_c_o,eMWprNXg2x149_s_w;animation-duration:7000ms;animation-fill-mode:forwards;animation-timing-function:linear;animation-direction:normal;animation-iteration-count:infinite}#eMWprNXg2x150_ts{animation:eMWprNXg2x150_ts__ts 7000ms linear infinite normal forwards}#eMWprNXg2x150{animation-name:eMWprNXg2x150_c_o,eMWprNXg2x150_s_w;animation-duration:7000ms;animation-fill-mode:forwards;animation-timing-function:linear;animation-direction:normal;animation-iteration-count:infinite}#eMWprNXg2x151_to{animation:eMWprNXg2x151_to__to 7000ms linear infinite normal forwards}#eMWprNXg2x151_tr{animation:eMWprNXg2x151_tr__tr 7000ms linear infinite normal forwards}#eMWprNXg2x151{animation:eMWprNXg2x151_c_o 7000ms linear infinite normal forwards}#eMWprNXg2x152{animation:eMWprNXg2x152_s_do 7000ms linear infinite normal forwards}#eMWprNXg2x153{animation:eMWprNXg2x153_s_do 7000ms linear infinite normal forwards}#eMWprNXg2x154{animation:eMWprNXg2x154_s_do 7000ms linear infinite normal forwards}#eMWprNXg2x155{animation:eMWprNXg2x155_s_do 7000ms linear infinite normal forwards}#eMWprNXg2x157_ts{animation:eMWprNXg2x157_ts__ts 7000ms linear infinite normal forwards}#eMWprNXg2x157{animation:eMWprNXg2x157_c_o 7000ms linear infinite normal forwards}#eMWprNXg2x158_ts{animation:eMWprNXg2x158_ts__ts 7000ms linear infinite normal forwards}#eMWprNXg2x158{animation-name:eMWprNXg2x158_c_o,eMWprNXg2x158_s_w;animation-duration:7000ms;animation-fill-mode:forwards;animation-timing-function:linear;animation-direction:normal;animation-iteration-count:infinite}#eMWprNXg2x159{animation:eMWprNXg2x159_c_o 7000ms linear infinite normal forwards}#eMWprNXg2x160{animation:eMWprNXg2x160_s_do 7000ms linear infinite normal forwards}#eMWprNXg2x161{animation:eMWprNXg2x161_s_do 7000ms linear infinite normal forwards}#eMWprNXg2x162{animation:eMWprNXg2x162_c_o 7000ms linear infinite normal forwards}#eMWprNXg2x163{animation:eMWprNXg2x163_s_do 7000ms linear infinite normal forwards}#eMWprNXg2x164{animation:eMWprNXg2x164_s_do 7000ms linear infinite normal forwards}</style><g transform="matrix(1.742735 0 0 1.742735 22.102658-85.592986)"><g><path fill="#7cb4d9" d="M521.457499,204.79c-13.81,0-25-11.19-25-25s11.19-25,25-25h215.512501c13.81,0,25-11.19,25-25s-11.19-25-25-25h-33.72c-13.81,0-25-11.19-25-25s11.19-25,25-25h262.5c13.81,0,25,11.19,25,25s-11.19,25-25,25h-43.991337c-13.81,0-25,11.19-25,25s11.19,25,25,25h98.394944c13.81,0,25,11.19,25,25s-11.19,25-25,25h-108.728002c-13.81,0-25,11.19-25,25s11.19,25,25,25h83.728002c13.81,0,25,11.19,25,25s-11.19,25-25,25h-29.403607c-13.81,0-25,11.19-25,25s11.19,25,25,25h44.913232c13.81,0,25,11.19,25,25s-11.2,25-25,25h-353.233232c-13.81,0-25-11.19-25-25s11.19-25,25-25h45.82c13.81,0,25-11.19,25-25s-11.19-25-25-25h-131.25c-13.81,0-25-11.19-25-25s11.19-25,25-25h95.23c13.81,0,25-11.19,25-25s-11.19-25-25-25h-145.772501Z" opacity=".39" transform="translate(2.919113 0.000015) translate(-361.489634 45.209989)"/><path fill="#7cb4d9" d="M583.93,404.79h-21.14c-13.81,0-25-11.19-25-25v0c0-13.81,11.19-25,25-25h21.14c13.81,0,25,11.19,25,25v0c0,13.81-11.2,25-25,25Z" opacity=".39" transform="translate(2.919113 0.000015) translate(-361.489632 45.21)"/></g><g style="offset-path:path('M400.004988,170.464338L400.004988,130.464338L400.004988,170.464338L400.004988,126.464338C579.110806,138.907815,809.197796,144.322045,980.625793,146.667282L-186.697063,148.464338C-186.726217,148.466817,400.553877,128.23753,399.700646,130.464338Q399.700646,130.464338,399.700646,170.464338L400,170.464338');offset-rotate:0deg" id="eMWprNXg2x17_to"><g id="eMWprNXg2x17_tr"><g><g display="none" transform="rotate(0) translate(-407.809979,-182.074339) translate(-830.067006 18.01064)"><g><path fill="#ff4f32" d="M200.36,428.75v20.5254h-75.3952v-93.9087h73.6514v20.5259h-47.3562v15.83h41.7221v19.8554h-41.7221v17.172Zm73.249,20.5254l-19.4527-29.1113-19.184,29.1113h-30.319l34.21-47.4912-32.7339-46.4175h29.9165l18.7817,27.0991l18.5132-27.0991h28.7092l-32.7339,45.3442l34.88,48.5645Zm121.4111-59.1626c0,21.3306-16.0986,34.6118-41.7226,34.6118h-16.3663v24.5508h-26.563v-93.9087h42.93c25.6237,0,41.7223,13.2812,41.7223,34.7461Zm-26.831,0c0-8.72-5.5-13.8179-16.501-13.8179h-14.7569v27.502h14.7573c11.0005,0,16.5015-5.0977,16.5015-13.6841Zm36.2216,12.2085c0-28.1729,22.1358-48.833,52.1866-48.833s52.1865,20.66,52.1865,48.833-22.1358,48.832-52.1865,48.832-52.1862-20.6592-52.1862-48.832Zm77.542,0c0-16.2329-11.1347-26.8311-25.3554-26.8311s-25.3555,10.5982-25.3555,26.8311s11.1348,26.831,25.3555,26.831s25.3558-10.5986,25.3558-26.831Zm81.834,22.001h-14.4879v24.9531h-26.5634v-93.9087h42.93c25.6241,0,41.7227,13.2812,41.7227,34.7461c0,13.8179-6.708,24.0142-18.38,29.6489l20.2578,29.5137h-28.44Zm.2686-48.0274h-14.7565v27.502h14.7569c11.0009,0,16.5009-5.0977,16.5009-13.6841c0-8.7202-5.5-13.8179-16.5009-13.8179Zm76.6015.1343h-28.8423v-21.0625h84.1155v21.0625h-28.71v72.8462h-26.5628Z"/><path fill="#ff4f32" d="M329.316,196.927l-40.2466,93.9087h-26.16L222.797,196.927h28.709l25.4892,61.1748l26.0264-61.1748Zm5.5,0h26.562v93.9087h-26.5625Zm45.4776,0h44.4052c31.1241,0,52.4551,18.1108,52.4551,46.9546s-21.331,46.9541-52.4551,46.9541h-44.4057Zm43.332,72.7124c15.9639,0,26.6963-9.5254,26.6963-25.7578s-10.7324-25.7578-26.6963-25.7578h-16.77v51.5156Zm142.874.67v20.5259h-75.396v-93.9083h73.6514v20.5259h-47.3565v15.83h41.7215v19.855h-41.7215v17.1721Zm9.794-26.4282c0-28.1729,22.1357-48.833,52.1865-48.833s52.1855,20.66,52.1855,48.833-22.1347,48.832-52.1855,48.832-52.187-20.6593-52.187-48.8316Zm77.542,0c0-16.2329-11.1358-26.8311-25.3555-26.8311s-25.3555,10.5982-25.3555,26.8311s11.1348,26.831,25.3555,26.831s25.355-10.5982,25.355-26.8306Z"/><path fill="#ff4f32" stroke-linecap="round" stroke-linejoin="round" stroke-width="6" d="M204.1587,250.4462l-73.4528,42.408c-2.345477,1.354138-5.23521,1.354122-7.580672-.000041s-3.790325-3.856747-3.790328-6.565059v-84.816c.000003-2.708312,1.444866-5.210895,3.790328-6.565059s5.235195-1.354179,7.580672-.000041l73.4528,42.408c2.345497,1.354156,3.790387,3.856762,3.790387,6.5651s-1.44489,5.210944-3.790387,6.5651Z"/><g clip-path="url(#eMWprNXg2x115)"><g id="eMWprNXg2x114_ts" transform="translate(153.381468,242.74936) scale(4.03385,4.03385)"><ellipse fill="#fff" stroke-width="0" rx="14.914" ry="14.914" transform="translate(0,0)"/></g><clipPath id="eMWprNXg2x115"><path fill="#ff4f32" d="M204.1587,250.4462l-73.4528,42.408c-2.345477,1.354138-5.23521,1.354122-7.580672-.000041s-3.790325-3.856747-3.790328-6.565059v-84.816c.000003-2.708312,1.444866-5.210895,3.790328-6.565059s5.235195-1.354179,7.580672-.000041l73.4528,42.408c2.345497,1.354156,3.790387,3.856762,3.790387,6.5651s-1.44489,5.210944-3.790387,6.5651Z"/></clipPath></g><g id="eMWprNXg2x117_ts" transform="translate(163.642006,243.881096) scale(1.1,1.1)"><path id="eMWprNXg2x117" fill="none" stroke="#ff4f32" stroke-linecap="round" stroke-linejoin="round" stroke-width="12" d="M204.1587,250.4462l-73.4528,42.408c-2.345477,1.354138-5.23521,1.354122-7.580672-.000041s-3.790325-3.856747-3.790328-6.565059v-84.816c.000003-2.708312,1.444866-5.210895,3.790328-6.565059s5.235195-1.354179,7.580672-.000041l73.4528,42.408c2.345497,1.354156,3.790387,3.856762,3.790387,6.5651s-1.44489,5.210944-3.790387,6.5651Z" transform="translate(-163.642006,-243.881096)"/></g></g><g id="eMWprNXg2x118_ts"><g><g mask="url(#eMWprNXg2x122)" transform="translate(400.000046,552.141785) scale(1,1) translate(-400.000046,-552.141785)"><rect width="463.409" height="82.952" fill="#030914" rx="16.8" ry="16.8" transform="translate(168.295 510.666)"/><path fill="#fff" d="M226.9128,560.4316h-14.6762l-2.8931,6.793h-5.6186l13.208-29.3516h5.3671l13.25,29.3516h-5.7026Zm-1.8032-4.2773l-5.5351-12.83-5.4927,12.83Zm18.3609-18.2813h5.4511v24.7393h15.3467v4.6123h-20.7978Zm56.2675,29.3516l-.042-19.456-9.644,16.1014h-2.432l-9.6441-15.85v19.2041h-5.2v-29.3511h4.4868L288.92,557.3291l11.4472-19.4561h4.4869l.0415,29.3516Zm15.1729-14.6758c0-8.68,6.709-15.0957,15.8076-15.0957s15.8081,6.374,15.8081,15.0957-6.709,15.0948-15.8081,15.0948-15.8076-6.4151-15.8076-15.0948Zm26.123,0c.000283-4.172154-2.512734-7.933653-6.367213-9.530482s-8.291329-.714514-11.241617,2.235516-3.832989,7.386803-2.236497,11.241422s5.357773,6.367963,9.529927,6.368044c2.761593.087644,5.436448-.970859,7.390257-2.924498s3.012546-4.628401,2.925143-7.390002Zm12.9937,11.5733l1.8867-4.2354c2.798457,2.08789,6.1945,3.219846,9.686,3.2285c4.57,0,6.5-1.6347,6.5-3.8154c0-6.332-17.4434-2.1807-17.4434-13.083c0-4.7383,3.7739-8.7637,11.8247-8.7637c3.434347-.054016,6.816318.846042,9.7695,2.6l-1.7187,4.2354c-2.44946-1.463265-5.239951-2.258297-8.0928-2.3057-4.5288,0-6.3735,1.7608-6.3735,3.9834c0,6.2471,17.4013,2.18,17.4013,12.9561c0,4.6963-3.8159,8.7217-11.8667,8.7217-4.5707-.0004-9.1415-1.4252-11.5731-3.5219ZM392.6,542.4854h-9.7285v-4.6124h24.9073v4.6124h-9.7278v24.7392h-5.451Zm58.4454,24.7392l-5.9971-8.5957c-.376229.034979-.754113.049001-1.1319.042h-6.625v8.5537h-5.4511v-29.3516h12.0761c7.7159,0,12.4961,3.9415,12.4961,10.44.184822,4.127622-2.35219,7.890342-6.248,9.2666l6.751,9.6445Zm-7.3809-24.7392h-6.3731v11.6982h6.3731c4.78,0,7.2549-2.18,7.2549-5.87s-2.4743-5.8282-7.2546-5.8282Zm45.0293,20.1689v4.57h-22.0138v-29.3513h21.4268v4.57h-15.9752v7.6318h14.1728v4.4863h-14.1728v8.0928ZM518,560.4316h-14.676l-2.8936,6.793h-5.6191L508.02,537.873h5.3672l13.25,29.3516h-5.7032Zm-1.8038-4.2773l-5.5341-12.83-5.4932,12.83Zm18.3614-18.2813h12.831c9.5186,0,16.0176,5.87,16.0176,14.6758s-6.499,14.6758-16.0176,14.6758h-12.831Zm12.5791,24.7393c6.542,0,10.7763-3.9834,10.7763-10.0635s-4.2343-10.0634-10.7763-10.0634h-7.128v20.1269Zm37.6494-5.7451v10.3574h-5.4512v-10.2734l-11.53-19.0782h5.8282l8.5957,14.2979l8.68-14.2979h5.3671Z"/><mask id="eMWprNXg2x122"><g id="eMWprNXg2x123_ts" transform="translate(168.295,552.1419) scale(0,1)"><rect width="463.409" height="82.952" fill="#fff" stroke-width="0" rx="16.8" ry="16.8" transform="translate(0,-41.4759)"/></g></mask></g></g></g></g><g transform="rotate(0) translate(-407.809979,-182.074339)"><g style="offset-path:path('M407.804993,550.59C426.053755,550.309468,431.79109,549.869828,462.901007,543.72522C462.896485,543.771394,462.42306,544.493184,462.380608,544.478804C427.104005,550.55062,367.97455,560.092902,320.469714,537.69841C320.49366,537.633233,320.459528,537.773359,320.469714,537.69841C365.58703,559.213316,452.218215,555.692895,494.917521,532.370554C494.95537,532.417471,494.917521,532.370554,494.917521,532.370554C448.829427,554.627574,368.922963,560.599649,320.469714,537.69841C320.426644,537.66624,320.523348,537.650289,320.469714,537.69841C366.146704,559.391003,451.753638,553.898292,494.917521,532.370554C494.884791,532.36063,494.862505,532.365473,494.917521,532.370554C451.083306,554.822498,366.885148,559.319174,320.469714,537.69841C320.412538,537.698766,320.461957,537.772306,320.469714,537.69841C365.719004,559.192089,450.885244,554.760868,494.917521,532.370554C494.917521,532.370554,494.967651,532.434515,494.917521,532.370554C451.002513,554.638603,367.23571,559.297911,320.469714,537.69841C320.420655,537.74351,320.467608,537.711962,320.469714,537.69841C368.726237,560.195824,450.80108,554.116462,494.917521,532.370554C448.803449,555.56021,367.007299,559.776853,320.469714,537.69841C363.220081,557.028076,408.611168,553.559569,462.518883,544.489752C408.695805,553.520159,391.923771,553.0399,366.755353,549.551865C379.617003,551.442332,392.138952,552.724465,407.804993,550.59Q407.804993,550.59,407.804993,550.59C417.282181,550.55062,454.990969,552.655297,495.17084,532.279007Q495.17084,532.279007,495.17084,532.279007C449.698557,555.161772,366.492867,560.313643,320.469714,537.69841C320.469714,537.69841,320.469714,537.69841,320.469714,537.69841C341.288329,548.827749,407.804993,550.59,407.804993,550.59C387.745425,552.866015,341.864604,549.498282,320.469714,537.69841C367.997672,560.197054,451.483175,555.110753,494.917521,532.370554C450.34569,553.457303,419.772225,550.147709,407.804993,550.59');offset-rotate:0deg" id="eMWprNXg2x125_to"><g transform="translate(-407.640014,-550.589996)"><circle r="37.22" fill="#ffdc00" transform="translate(407.64 550.59)"/><path fill="#fa8c1c" d="M444.86,550.59c0,20.55-74.43,20.55-74.43,0s16.66-37.22,37.22-37.22s37.21,16.66,37.21,37.22Z"/><circle r="37.22" fill="none" stroke="#000" stroke-linecap="round" stroke-linejoin="round" stroke-miterlimit="10" stroke-width="12" transform="translate(407.64 550.59)"/></g></g><circle r="28.19" fill="#ffdc00" stroke="#000" stroke-linecap="round" stroke-linejoin="round" stroke-miterlimit="10" stroke-width="12" transform="translate(407.64 263.6)"/><path fill="#ffdc00" d="M528.73,400.43c-2.55-78.83-52.52-138.18-121.08-138.18s-120.25,59.2-120.25,138.18c0,46.92-16.71,76.73-29.27,94.92-10.26,14.87-6.18,35.25,9.08,44.92v0c10.63,6.74,22.97,10.32,35.56,10.32h209.73c12.59,0,24.92-3.58,35.56-10.32v0c15.26-9.67,19.34-30.05,9.08-44.92-12.55-18.19-26.89-48.02-28.41-94.92Z"/><path id="eMWprNXg2x131" fill="#fa8c1c" d="M404.48,260.94c68.56,0,124.25,60.51,124.25,139.49c0,46.92,16.2,76.73,28.75,94.92c10.26,14.87,6.18,35.25-9.08,44.92v0c-10.63,6.74-15.7,11.29-103.23,10.32c0,0,82.19-5.74,82.19-37.22c0-17.66-28.56-40.63-28.56-113.19c0-108.39-94.32-139.24-94.32-139.24Z"/><g id="eMWprNXg2x132_to"><g transform="translate(349.104996,323.310013) translate(-349.104996,-323.310013)"><path fill="none" stroke="#fff" stroke-linecap="round" stroke-linejoin="round" stroke-miterlimit="10" stroke-width="12" d="M341.58,328.12c3.27-7.59,14.65-21.72,22.91-29.23"/><line x1="333.72" x2="333.72" y1="347.73" y2="347.73" fill="none" stroke="#fff" stroke-linecap="round" stroke-linejoin="round" stroke-miterlimit="10" stroke-width="12"/></g></g><g style="offset-path:path('M407.804992,441.467627L407.804992,401.467627L407.804992,441.467627Q394.811677,377.464008,394.811677,377.464008C401.54111,395.468615,441.534977,443.794538,448.024979,446.301994Q448.015465,446.386733,448.024979,446.301994L407.804992,401.467627L407.804992,441.467627');offset-rotate:0deg" id="eMWprNXg2x135_to"><g id="eMWprNXg2x135_tr"><g transform="rotate(0) scale(1.939625,1.939625) translate(-636,-142.376686)"><path fill="none" stroke="#ff4f32" stroke-linecap="round" stroke-linejoin="round" stroke-miterlimit="10" stroke-width="10.5" d="M666,140.8h10"/><path fill="none" stroke="#ff4f32" stroke-linecap="round" stroke-linejoin="round" stroke-miterlimit="10" stroke-width="10.5" d="M596,140.8h10"/><path id="eMWprNXg2x138" stroke="#000" stroke-linecap="round" stroke-linejoin="round" stroke-miterlimit="10" stroke-width="5.5" d="M-2.5,0c0-1.380712,1.119288-2.5,2.5-2.5s2.5,1.119288,2.5,2.5-1.119288,2.5-2.5,2.5-2.5-1.119288-2.5-2.5Z" transform="translate(664 127.8)"/><path id="eMWprNXg2x139" stroke="#000" stroke-linecap="round" stroke-linejoin="round" stroke-miterlimit="10" stroke-width="5.5" d="M-2.5,0c0-1.380712,1.119288-2.5,2.5-2.5s2.5,1.119288,2.5,2.5-1.119288,2.5-2.5,2.5-2.5-1.119288-2.5-2.5Z" transform="translate(608 127.8)"/><path id="eMWprNXg2x140" fill="#350707" stroke-linecap="round" stroke-linejoin="round" stroke-miterlimit="10" stroke-width="4" d="M643,140.8c0,0-2.1,5-7,5-5.1,0-7-5-7-5s1.900048,5.022151,7.000004,4.999998C640.354011,145.781085,643,140.8,643,140.8Z"/><g mask="url(#eMWprNXg2x143)"><path fill="#ff3839" stroke-width="0" d="M-4.58762,0c0-2.533673,2.053947-4.58762,4.58762-4.58762s4.58762,2.053947,4.58762,4.58762-2.053947,4.58762-4.58762,4.58762-4.58762-2.053947-4.58762-4.58762Z" transform="matrix(.982637-.950889 0.975969 1.008554 637.858904 149.468196)"/><mask id="eMWprNXg2x143"><path id="eMWprNXg2x144" fill="#fff" stroke="#000" stroke-linecap="round" stroke-linejoin="round" stroke-miterlimit="10" stroke-width="0" d="M643,140.8c0,0-2.1,5-7,5-5.1,0-7-5-7-5s1.900048,5.022151,7.000004,4.999998C640.354011,145.781085,643,140.8,643,140.8Z"/></mask></g><path id="eMWprNXg2x145" fill="none" stroke="#000" stroke-linecap="round" stroke-linejoin="round" stroke-miterlimit="10" stroke-width="5.5" d="M643,140.8c0,0-2.1,5-7,5-5.1,0-7-5-7-5s1.900048,5.022151,7.000004,4.999998C640.354011,145.781085,643,140.8,643,140.8Z"/></g></g></g><path fill="none" stroke="#000" stroke-linecap="round" stroke-linejoin="round" stroke-miterlimit="10" stroke-width="12" d="M531.73,400c-2.55-78.83-55.52-140.24-124.09-140.24s-122.37,61.68-122.37,140.67c0,46.92-14.58,76.73-27.14,94.92-10.26,14.87-6.18,35.25,9.08,44.92v0c10.63,6.74,22.97,10.32,35.56,10.32h209.73c12.59,0,24.92-3.58,35.56-10.32v0c15.26-9.67,19.34-30.05,9.08-44.92-12.55-18.19-23.89-48.45-25.41-95.35Z"/></g></g></g></g><g transform="translate(.406525 1.475739)"><g transform="matrix(4.140265 1.70152-1.70152 4.140265-159.899721-688.683389)"><g id="eMWprNXg2x149_ts" transform="translate(156.42183,158.889827) scale(1,1)"><path id="eMWprNXg2x149" fill="none" stroke="#ff4f32" stroke-width="3" d="M-4.934934,0c0-2.725489,2.209445-4.934934,4.934934-4.934934s4.934934,2.209445,4.934934,4.934934-2.209445,4.934934-4.934934,4.934934-4.934934-2.209445-4.934934-4.934934Z" opacity="0" transform="translate(0,0)"/></g><g id="eMWprNXg2x150_ts" transform="translate(140.331601,189.643964) scale(0.551659,0.551659)"><path id="eMWprNXg2x150" fill="none" stroke="#88b7f0" stroke-width="4" d="M-4.934934,0c0-2.725489,2.209445-4.934934,4.934934-4.934934s4.934934,2.209445,4.934934,4.934934-2.209445,4.934934-4.934934,4.934934-4.934934-2.209445-4.934934-4.934934Z" opacity="0" transform="translate(0,0)"/></g></g><g id="eMWprNXg2x151_to" transform="translate(193.564834,311.814446)"><g id="eMWprNXg2x151_tr" transform="rotate(0)"><g id="eMWprNXg2x151" opacity="0" transform="translate(-187.89907,-334.934189)"><line id="eMWprNXg2x152" x1="-12.607" x2="2.607" y1=".118" y2="-.118" fill="none" stroke="#000" stroke-dasharray="15.216" stroke-dashoffset="30.43" stroke-linecap="round" stroke-linejoin="round" stroke-width="8" transform="translate(170.794297 334.815734)"/><line id="eMWprNXg2x153" x1="-12.607" x2="2.607" y1=".118" y2="-.118" fill="none" stroke="#000" stroke-dasharray="15.216" stroke-dashoffset="30.43" stroke-linecap="round" stroke-linejoin="round" stroke-width="8" transform="matrix(0 1-1 0 188.017527 317.829418)"/><line id="eMWprNXg2x154" x1="-12.607" x2="2.607" y1=".118" y2="-.118" fill="none" stroke="#000" stroke-dasharray="15.216" stroke-dashoffset="30.43" stroke-linecap="round" stroke-linejoin="round" stroke-width="8" transform="matrix(-1 0 0-1 205.003843 335.052648)"/><line id="eMWprNXg2x155" x1="-12.607" x2="2.607" y1=".118" y2="-.118" fill="none" stroke="#000" stroke-dasharray="15.216" stroke-dashoffset="30.43" stroke-linecap="round" stroke-linejoin="round" stroke-width="8" transform="matrix(0-1 1 0 187.780613 352.038964)"/></g></g></g><g transform="matrix(4.217971-1.498562 1.498562 4.217971-710.325143-54.705323)"><g id="eMWprNXg2x157_ts" transform="translate(266.93689,198.705282) scale(0.4,0.4)"><path id="eMWprNXg2x157" fill="#ff3877" stroke-width="3" d="M-4.934934,0c0-2.725489,2.209445-4.934934,4.934934-4.934934s4.934934,2.209445,4.934934,4.934934-2.209445,4.934934-4.934934,4.934934-4.934934-2.209445-4.934934-4.934934Z" opacity="0" transform="translate(0,0)"/></g><g id="eMWprNXg2x158_ts" transform="translate(262.703156,153.548672) scale(1,1)"><path id="eMWprNXg2x158" fill="none" stroke="#88b7f0" stroke-width="3" d="M-4.934934,0c0-2.725489,2.209445-4.934934,4.934934-4.934934s4.934934,2.209445,4.934934,4.934934-2.209445,4.934934-4.934934,4.934934-4.934934-2.209445-4.934934-4.934934Z" opacity="0" transform="translate(0,0)"/></g></g><g id="eMWprNXg2x159" opacity="0" transform="matrix(-1 0 0 1 790.307235 28.902236)"><path id="eMWprNXg2x160" fill="none" stroke="#ff4f32" stroke-dasharray="65.42" stroke-dashoffset="65.42" stroke-linecap="round" stroke-linejoin="round" stroke-width="12" d="M213.637945,482.919313L182.00973,469.047312" transform="matrix(1 0 0-1 0.000001 1005.562364)"/><path id="eMWprNXg2x161" fill="none" stroke="#ff4f32" stroke-dasharray="69.997" stroke-dashoffset="69.997" stroke-linecap="round" stroke-linejoin="round" stroke-width="12" d="M211.637945,497.522423h-69.997457" transform="translate(.000001 4)"/></g><g id="eMWprNXg2x162" opacity="0" transform="translate(15.039463 30.960381)"><path id="eMWprNXg2x163" fill="none" stroke="#ff4f32" stroke-dasharray="65.42" stroke-dashoffset="65.42" stroke-linecap="round" stroke-linejoin="round" stroke-width="12" d="M213.637945,482.919313L181.03001,468.637704" transform="matrix(1 0 0-1 0.000001 1005.562364)"/><path id="eMWprNXg2x164" fill="none" stroke="#ff4f32" stroke-dasharray="69.997" stroke-dashoffset="69.997" stroke-linecap="round" stroke-linejoin="round" stroke-width="12" d="M211.637945,497.522423h-69.997457" transform="translate(.000001 4)"/></g></g></g></svg>