<svg xmlns="http://www.w3.org/2000/svg" xmlns:cc="http://web.resource.org/cc/" xmlns:svg="http://www.w3.org/2000/svg" xmlns:xlink="http://www.w3.org/1999/xlink" id="infot" width="174.385" height="205.315" style="enable-background:new 21.40552 6.8396 174.38525 205.31543" x="0" y="0" version="1.1" viewBox="21.406 6.84 174.385 205.315" xml:space="preserve"><g id="g3"><polygon id="polygon5" points="35.642 54.532 89.968 23.167 195.29 83.975 140.965 115.34" style="fill:#aaa;stroke:#787878;stroke-linejoin:round"/><path id="path7" d="M189.4519,133.54077c0-3.31641,0.83887-5.86035,2.65332-7.5166 c0-0.09863,3.18555-1.76953,3.18555-1.76953v-40.2793l-54.3252,31.36426v81.9707l54.3252-31.36523V142.8269 C192.0105,142.35132,189.4519,138.37476,189.4519,133.54077z" style="fill:#3d3d3e;stroke:#787878;stroke-linejoin:round"/><path id="path9" d="M189.4519,133.54077c0-3.08594,1.0459-5.81641,2.65332-7.5166l-51.14062,29.16699 c-3.2793,0.47559-5.83887,4.45117-5.83887,9.28516s2.55957,8.80957,5.83887,9.28516v0.04785l54.3252-30.93652v-0.04785 C192.0105,142.35132,189.4519,138.37476,189.4519,133.54077z M195.15698,124.28589c0.04492-0.00879,0.08789-0.02148,0.13379-0.0293 v-0.04785L195.15698,124.28589z" style="fill:#5a5b5d;stroke:#787878;stroke-linejoin:round"/><polygon id="polygon11" points="35.642 54.532 35.642 38.705 58.49 25.514 58.49 41.342" style="fill:none;stroke:#787878;stroke-linejoin:round"/><polygon id="polygon13" points="63.87 28.621 63.87 44.447 41.022 57.638 41.022 41.812" style="fill:#3d3d3e;stroke:#787878;stroke-linejoin:round"/><polygon id="polygon15" points="99.068 91.15 99.068 75.323 121.914 62.132 121.914 77.96" style="fill:none;stroke:#787878;stroke-linejoin:round"/><polygon id="polygon17" points="127.295 65.239 127.295 81.065 104.448 94.256 104.448 78.43" style="fill:#3d3d3e;stroke:#787878;stroke-linejoin:round"/><polygon id="polygon19" points="46.586 38.6 46.586 54.426 104.448 87.833 104.448 72.006" style="fill:#2d2d2e;stroke:#787878;stroke-linejoin:round"/><path id="path21" d="M140.9646,155.19214V115.3396L104.448,94.25562v-15.8252l-5.37988-3.10645v15.82715 l-58.0459-33.5127V41.81226l-5.37988-3.10645v15.82715v2.94531v79.02441l27.71191,15.99902l4.24316-3.25586l25.21191,14.55469 l4.24316,8.15723l43.91211,25.35352v-23.54785c-3.2793-0.47656-5.83887-4.45117-5.83887-9.28516 S137.6853,155.66675,140.9646,155.19214z" style="fill:#2d2d2e;stroke:#787878;stroke-linejoin:round"/><polygon id="polygon23" points="67.12 36.358 67.12 20.531 89.967 7.34 89.967 23.168" style="fill:#3a3b3c;stroke:#787878;stroke-linejoin:round"/><polygon id="polygon25" points="95.347 10.447 95.347 26.273 72.5 39.464 72.5 23.638" style="fill:#3d3d3e;stroke:#787878;stroke-linejoin:round"/><polygon id="polygon27" points="130.545 72.977 130.545 57.149 153.391 43.958 153.391 59.786" style="fill:none;stroke:#787878;stroke-linejoin:round"/><polygon id="polygon29" points="67.12 20.532 72.5 23.638 72.5 39.465 67.12 36.359" style="fill:#2d2d2e;stroke:#787878;stroke-linejoin:round"/><polygon id="polygon31" points="158.772 47.065 158.772 62.892 135.925 76.083 135.925 60.256" style="fill:#3d3d3e;stroke:#787878;stroke-linejoin:round"/><polygon id="polygon33" points="78.063 20.426 78.063 36.252 135.925 69.659 135.925 53.832" style="fill:#2d2d2e;stroke:#787878;stroke-linejoin:round"/><polygon id="polygon35" points="130.545 57.149 135.925 60.256 135.925 76.083 130.545 72.977" style="fill:#2d2d2e;stroke:#787878;stroke-linejoin:round"/><polygon id="polygon37" points="105.622 36.337 105.622 52.164 96.537 57.409 82.831 49.496" style="fill:#3d3d3e;stroke:#787878;stroke-linejoin:round"/><polygon id="polygon39" points="153.391 43.958 144.794 48.922 86.75 15.411 95.347 10.447 89.967 7.34 67.12 20.531 72.5 23.638 78.063 20.426 100.833 33.572 78.042 46.73 55.272 33.584 63.87 28.621 58.49 25.514 35.642 38.705 41.022 41.812 46.586 38.6 104.631 72.111 99.068 75.323 104.448 78.43 127.295 65.239 121.914 62.132 113.317 67.096 82.831 49.496 105.623 36.337 136.109 53.937 130.545 57.149 135.925 60.256 158.772 47.065" style="fill:#aaa;stroke:#787878;stroke-linejoin:round"/></g><g><g><line style="fill:none;stroke:#782929;stroke-width:2;stroke-linejoin:round" x1="23.174" x2="125.859" y1="149.854" y2="210.313"/><g><path style="fill:#782929" d="M27.93042,161.99683c0.22754,0.13379,0.51709,0.15234,0.77002,0.02344 c0.39355-0.2002,0.5498-0.68262,0.34912-1.07617l-5.56055-10.9043l12.23242-0.42773 c0.44189-0.01562,0.78809-0.38672,0.77197-0.82715c-0.01611-0.44141-0.39014-0.78613-0.82764-0.77246l-13.48779,0.47266 c-0.27295,0.00977-0.52295,0.1582-0.66162,0.39355s-0.14746,0.52637-0.02344,0.76953l6.13135,12.02344 C27.69604,161.81128,27.80396,161.92261,27.93042,161.99683C28.15796,162.13062,27.80396,161.92261,27.93042,161.99683z"/></g><g><path style="fill:#782929" d="M112.93433,212.04468c-0.22754-0.13379-0.38379-0.37793-0.39355-0.66211 c-0.0166-0.44043,0.33008-0.81152,0.77148-0.82715l12.23242-0.42773l-5.56055-10.9043 c-0.20117-0.39355-0.04492-0.87598,0.34863-1.07617s0.87695-0.04102,1.07715,0.34863l6.13086,12.02344 c0.12402,0.24316,0.11523,0.53418-0.02344,0.76953s-0.38867,0.38379-0.66113,0.39355l-13.48828,0.47266 C113.21069,212.15991,113.06128,212.1189,112.93433,212.04468C112.70679,211.91089,113.06128,212.1189,112.93433,212.04468z"/></g></g></g></svg>